<?xml version="1.0" encoding="UTF-8" standalone="no"?>
<!DOCTYPE svg PUBLIC "-//W3C//DTD SVG 1.1//EN" "http://www.w3.org/Graphics/SVG/1.1/DTD/svg11.dtd">
<svg width="100%" height="100%" viewBox="0 0 1600 560" version="1.1" xmlns="http://www.w3.org/2000/svg" xmlns:xlink="http://www.w3.org/1999/xlink" xml:space="preserve" xmlns:serif="http://www.serif.com/" style="fill-rule:evenodd;clip-rule:evenodd;stroke-linejoin:round;stroke-miterlimit:2;">
    <g transform="matrix(1,0,0,1,-1203.771005,-1059.892711)">
        <g transform="matrix(4.166667,0,0,4.166667,0,0)">
            <g transform="matrix(1,0,0,1,59.868641,23.904051)">
                <g transform="matrix(1,0,0,1,308.2964,292.0798)">
                    <path d="M0,10.472L11.608,33.938L3.466,33.938C1.452,33.938 -0.376,32.775 -1.229,30.954L-10.051,12.114L-13.733,4.248L-10.764,4.248C-3.912,4.248 0,0.841 0,-5.342C0,-11.942 -4.333,-15.305 -10.556,-15.305L-21.32,-15.305L-21.32,28.756C-21.32,31.619 -23.642,33.938 -26.504,33.938L-31.415,33.938L-31.415,-23.466L-9.126,-23.466C4.249,-23.466 10.516,-15.433 10.516,-5.634C10.516,3.828 4.541,8.705 0,10.472" style="fill:rgb(129,188,0);fill-rule:nonzero;"/>
                </g>
                <g transform="matrix(1,0,0,1,274.5034,299.1915)">
                    <path d="M0,-3.752L0,7.583C0,15.951 -5.608,27.369 -22.094,27.369C-38.088,27.369 -45.467,16.775 -45.467,1.605L-45.467,-5.691C-45.467,-21.395 -36.482,-31.121 -21.889,-31.121C-7.791,-31.121 -0.577,-22.015 -0.125,-12.246L-9.852,-12.246C-10.676,-19.127 -15.79,-22.631 -22.011,-22.631C-29.598,-22.631 -35.45,-17.478 -35.45,-5.648L-35.45,1.605C-35.45,11.952 -31.286,18.88 -22.011,18.88C-14.51,18.88 -9.522,14.178 -9.522,8.078L-9.522,3.996L-21.972,3.996L-21.972,1.326C-21.972,-1.48 -19.696,-3.752 -16.894,-3.752L0,-3.752Z" style="fill:rgb(129,188,0);fill-rule:nonzero;"/>
                </g>
                <g transform="matrix(1,0,0,1,545.6855,364.8052)">
                    <path d="M0,-134.335C-23.512,-134.335 -43.419,-123.413 -55.419,-105.12C-53.301,-105.493 -51.655,-105.497 -49.434,-105.367C-44.647,-105.085 -41.352,-103.818 -37.549,-102.514C-27.013,-116.044 -10.57,-124.749 7.906,-124.749C39.707,-124.749 65.487,-98.968 65.487,-67.167C65.487,-35.366 39.707,-9.586 7.906,-9.586C-10.57,-9.586 -27.419,-18.696 -37.955,-32.226C-41.551,-30.56 -45.431,-29.806 -49.675,-29.806C-51.9,-29.806 -54.08,-30.002 -56.198,-30.376C-44.198,-12.083 -23.512,0 0,0C37.096,0 67.168,-30.072 67.168,-67.167C67.168,-104.263 37.096,-134.335 0,-134.335" style="fill:rgb(129,188,0);fill-rule:nonzero;"/>
                </g>
                <g transform="matrix(1,0,0,1,502.5127,329.0523)">
                    <path d="M0,-63.629C-3.055,-64.531 -6.291,-65.017 -9.643,-65.017C-13.045,-65.017 -16.328,-64.517 -19.423,-63.589C-33.223,-59.453 -43.267,-46.793 -43.267,-31.815C-43.267,-16.837 -33.223,-4.176 -19.423,-0.04C-16.328,0.887 -13.045,1.388 -9.643,1.388C-6.291,1.388 -3.055,0.902 0,0C13.87,-4.093 23.981,-16.787 23.981,-31.815C23.981,-46.842 13.87,-59.536 0,-63.629" style="fill:rgb(65,0,153);fill-rule:nonzero;"/>
                </g>
                <g transform="matrix(1,0,0,1,579.2949,320.746)">
                    <path d="M0,-46.746L0,5.148L-5.042,5.148C-7.933,5.148 -10.276,2.844 -10.276,-0.001L-10.276,-51.894L-5.23,-51.894C-2.344,-51.894 0,-49.587 0,-46.746" style="fill:rgb(129,188,0);fill-rule:nonzero;"/>
                </g>
                <g transform="matrix(1,0,0,1,563.945008,272.606)">
                    <path d="M0,50.064L0,53.615L-30.326,53.615C-33.223,53.615 -35.567,51.306 -35.567,48.455L-35.567,-3.551L-30.515,-3.551C-27.618,-3.551 -25.272,-1.239 -25.272,1.608L-25.272,44.905L-5.241,44.905C-2.345,44.905 0,47.217 0,50.064" style="fill:rgb(129,188,0);fill-rule:nonzero;"/>
                </g>
                <g transform="matrix(1,0,0,1,447.0654,320.7237)">
                    <path d="M0,-46.94L0,5.17L-8.687,5.17L-35.083,-35.032L-35.375,-35.032L-35.375,0C-35.375,2.856 -37.691,5.17 -40.544,5.17L-45.068,5.17L-45.068,-52.11L-36.298,-52.11L-9.985,-12.032L-9.65,-12.032L-9.65,-52.11L-5.17,-52.11C-2.316,-52.11 0,-49.793 0,-46.94" style="fill:rgb(129,188,0);fill-rule:nonzero;"/>
                </g>
                <g transform="matrix(1,0,0,1,399.5981,277.09)">
                    <path d="M0,40.328L0,48.804L-13.178,48.804C-26.885,48.804 -37.998,37.694 -37.998,23.983L-37.998,16.344C-37.998,2.637 -26.885,-8.476 -13.178,-8.476L0,-8.476L0,-0.001L-12.149,-0.001C-16.494,-0.001 -20.427,1.761 -23.276,4.611C-26.122,7.46 -27.884,11.393 -27.884,15.738L-6.724,15.738C-3.871,15.738 -1.554,18.051 -1.554,20.908L-1.554,23.754L-27.884,23.754L-27.884,24.593C-27.884,33.283 -20.839,40.328 -12.149,40.328L0,40.328Z" style="fill:rgb(129,188,0);fill-rule:nonzero;"/>
                </g>
                <g transform="matrix(1,0,0,1,359.2017,277.1915)">
                    <path d="M0,40.329L0,48.804L-13.174,48.804C-26.885,48.804 -37.994,37.694 -37.994,23.984L-37.994,16.345C-37.994,2.638 -26.885,-8.475 -13.174,-8.475L0,-8.475L0,-0L-12.146,-0C-16.491,-0 -20.424,1.762 -23.273,4.611C-26.119,7.461 -27.881,11.393 -27.881,15.739L-6.724,15.739C-3.867,15.739 -1.551,18.052 -1.551,20.909L-1.551,23.754L-27.881,23.754L-27.881,24.594C-27.881,33.284 -20.836,40.329 -12.146,40.329L0,40.329Z" style="fill:rgb(129,188,0);fill-rule:nonzero;"/>
                </g>
                <g transform="matrix(1,0,0,1,235.4507,353.3366)">
                    <path d="M0,-11.861L0,1.933L-2.021,1.933L-2.021,-11.861L-6.414,-11.861L-6.414,-13.794L4.393,-13.794L4.393,-11.861L0,-11.861Z" style="fill:rgb(65,0,153);fill-rule:nonzero;"/>
                </g>
                <g transform="matrix(1,0,0,1,243.4463,349.8887)">
                    <path d="M0,0C0,1.157 0.336,2.094 1.01,2.812C1.684,3.529 2.519,3.888 3.515,3.888C4.51,3.888 5.345,3.529 6.019,2.812C6.692,2.094 7.029,1.157 7.029,0C7.029,-1.143 6.692,-2.072 6.019,-2.79C5.33,-3.522 4.496,-3.889 3.515,-3.889C2.533,-3.889 1.698,-3.522 1.01,-2.79C0.336,-2.072 0,-1.143 0,0M-2.021,0C-2.021,-1.655 -1.501,-3.024 -0.461,-4.107C0.593,-5.191 1.918,-5.733 3.515,-5.733C5.11,-5.733 6.428,-5.191 7.468,-4.107C8.522,-3.024 9.049,-1.655 9.049,0C9.049,1.669 8.522,3.039 7.468,4.107C6.428,5.191 5.11,5.733 3.515,5.733C1.918,5.733 0.593,5.191 -0.461,4.107C-1.501,3.023 -2.021,1.655 -2.021,0" style="fill:rgb(65,0,153);fill-rule:nonzero;"/>
                </g>
                <g transform="matrix(1,0,0,1,261.3701,350.7454)">
                    <path d="M0,3.031C0.996,3.031 1.809,2.673 2.438,1.955C3.097,1.237 3.427,0.301 3.427,-0.857C3.427,-1.985 3.097,-2.914 2.438,-3.647C1.793,-4.379 0.981,-4.745 0,-4.745C-0.966,-4.745 -1.779,-4.379 -2.438,-3.647C-3.097,-2.914 -3.427,-1.985 -3.427,-0.857C-3.427,0.285 -3.097,1.216 -2.438,1.932C-1.779,2.665 -0.966,3.031 0,3.031M-0.066,9.621C-0.667,9.621 -1.23,9.544 -1.757,9.39C-2.285,9.236 -2.764,9.02 -3.196,8.742C-3.628,8.464 -3.998,8.135 -4.305,7.754C-4.613,7.373 -4.847,6.948 -5.008,6.479L-3.097,5.689C-2.877,6.318 -2.497,6.824 -1.955,7.205C-1.413,7.585 -0.784,7.775 -0.066,7.775C1.032,7.775 1.889,7.446 2.504,6.787C3.119,6.128 3.427,5.22 3.427,4.063L3.427,3.031L3.339,3.031C2.958,3.602 2.442,4.052 1.791,4.382C1.139,4.712 0.432,4.877 -0.33,4.877C-1.735,4.877 -2.944,4.327 -3.954,3.228C-4.95,2.101 -5.448,0.739 -5.448,-0.857C-5.448,-2.452 -4.95,-3.808 -3.954,-4.921C-2.944,-6.033 -1.735,-6.59 -0.33,-6.59C0.432,-6.59 1.139,-6.425 1.791,-6.096C2.442,-5.767 2.958,-5.316 3.339,-4.745L3.427,-4.745L3.427,-6.239L5.359,-6.239L5.359,4.063C5.359,5.792 4.869,7.146 3.888,8.127C2.892,9.123 1.574,9.621 -0.066,9.621" style="fill:rgb(65,0,153);fill-rule:nonzero;"/>
                </g>
                <g transform="matrix(1,0,0,1,272.8799,351.1848)">
                    <path d="M0,-2.592L6.172,-2.592C6.114,-3.339 5.81,-3.958 5.261,-4.448C4.712,-4.939 3.976,-5.185 3.054,-5.185C2.292,-5.185 1.637,-4.95 1.087,-4.482C0.538,-4.013 0.176,-3.383 0,-2.592M3.229,4.437C1.647,4.437 0.344,3.895 -0.681,2.811C-1.706,1.727 -2.218,0.359 -2.218,-1.296C-2.218,-2.937 -1.721,-4.302 -0.725,-5.393C0.271,-6.484 1.545,-7.029 3.097,-7.029C4.693,-7.029 5.963,-6.513 6.908,-5.481C7.853,-4.448 8.325,-3.002 8.325,-1.143L8.303,-0.923L-0.154,-0.923C-0.125,0.132 0.227,0.981 0.9,1.625C1.574,2.269 2.379,2.592 3.317,2.592C4.605,2.592 5.616,1.947 6.348,0.658L8.149,1.537C7.666,2.445 6.996,3.155 6.139,3.668C5.283,4.18 4.312,4.437 3.229,4.437" style="fill:rgb(65,0,153);fill-rule:nonzero;"/>
                </g>
                <g transform="matrix(1,0,0,1,289.1782,341.2123)">
                    <path d="M0,14.233C-0.878,14.233 -1.607,13.962 -2.186,13.421C-2.764,12.879 -3.061,12.125 -3.075,11.159L-3.075,5.14L-4.964,5.14L-4.964,3.295L-3.075,3.295L-3.075,0L-1.054,0L-1.054,3.295L1.582,3.295L1.582,5.14L-1.054,5.14L-1.054,10.5C-1.054,11.217 -0.915,11.704 -0.637,11.96C-0.359,12.216 -0.044,12.344 0.308,12.344C0.469,12.344 0.626,12.327 0.78,12.29C0.934,12.253 1.076,12.206 1.208,12.147L1.845,13.948C1.318,14.138 0.703,14.233 0,14.233" style="fill:rgb(65,0,153);fill-rule:nonzero;"/>
                </g>
                <g transform="matrix(1,0,0,1,294.999,355.27)">
                    <path d="M0,-15.727L2.021,-15.727L2.021,-10.763L1.933,-9.27L2.021,-9.27C2.328,-9.796 2.8,-10.236 3.438,-10.587C4.074,-10.939 4.737,-11.115 5.425,-11.115C6.743,-11.115 7.757,-10.737 8.467,-9.984C9.178,-9.229 9.533,-8.157 9.533,-6.765L9.533,0L7.512,0L7.512,-6.371C7.512,-8.303 6.655,-9.27 4.942,-9.27C4.122,-9.27 3.43,-8.929 2.866,-8.248C2.302,-7.567 2.021,-6.773 2.021,-5.865L2.021,0L0,0L0,-15.727Z" style="fill:rgb(65,0,153);fill-rule:nonzero;"/>
                </g>
                <g transform="matrix(1,0,0,1,310.7041,351.1848)">
                    <path d="M0,-2.592L6.172,-2.592C6.114,-3.339 5.81,-3.958 5.261,-4.448C4.712,-4.939 3.976,-5.185 3.053,-5.185C2.292,-5.185 1.636,-4.95 1.087,-4.482C0.538,-4.013 0.176,-3.383 0,-2.592M3.229,4.437C1.647,4.437 0.344,3.895 -0.681,2.811C-1.707,1.727 -2.219,0.359 -2.219,-1.296C-2.219,-2.937 -1.721,-4.302 -0.725,-5.393C0.271,-6.484 1.544,-7.029 3.097,-7.029C4.693,-7.029 5.963,-6.513 6.908,-5.481C7.853,-4.448 8.325,-3.002 8.325,-1.143L8.303,-0.923L-0.154,-0.923C-0.125,0.132 0.227,0.981 0.9,1.625C1.574,2.269 2.379,2.592 3.316,2.592C4.605,2.592 5.615,1.947 6.348,0.658L8.149,1.537C7.666,2.445 6.996,3.155 6.139,3.668C5.283,4.18 4.312,4.437 3.229,4.437" style="fill:rgb(65,0,153);fill-rule:nonzero;"/>
                </g>
                <g transform="matrix(1,0,0,1,325.0913,344.1995)">
                    <path d="M0,11.07L-2.021,11.07L-2.021,0.307L-0.088,0.307L-0.088,2.064L0,2.064C0.205,1.494 0.626,1.007 1.263,0.603C1.9,0.201 2.526,0 3.141,0C3.727,0 4.225,0.088 4.635,0.263L4.02,2.218C3.771,2.116 3.375,2.064 2.833,2.064C2.072,2.064 1.409,2.372 0.846,2.987C0.282,3.602 0,4.32 0,5.139L0,11.07Z" style="fill:rgb(65,0,153);fill-rule:nonzero;"/>
                </g>
                <g transform="matrix(1,0,0,1,331.9443,352.4145)">
                    <path d="M0,5.316L-0.944,4.701L0.242,2.855C-0.066,2.796 -0.326,2.643 -0.538,2.394C-0.75,2.146 -0.856,1.845 -0.856,1.494C-0.856,1.069 -0.71,0.713 -0.417,0.428C-0.125,0.143 0.228,0 0.638,0C1.062,0 1.417,0.143 1.703,0.428C1.988,0.713 2.131,1.069 2.131,1.494C2.131,1.889 1.984,2.321 1.692,2.79L0,5.316Z" style="fill:rgb(65,0,153);fill-rule:nonzero;"/>
                </g>
                <g transform="matrix(1,0,0,1,360.8291,355.2698)">
                    <path d="M0,-10.763L-3.471,0L-5.536,0L-8.215,-8.259L-10.873,0L-12.916,0L-16.386,-10.763L-14.278,-10.763L-11.884,-2.636L-11.861,-2.636L-9.203,-10.763L-7.117,-10.763L-4.459,-2.636L-4.437,-2.636L-2.064,-10.763L0,-10.763Z" style="fill:rgb(65,0,153);fill-rule:nonzero;"/>
                </g>
                <g transform="matrix(1,0,0,1,365.7275,351.1848)">
                    <path d="M0,-2.592L6.172,-2.592C6.114,-3.339 5.81,-3.958 5.261,-4.448C4.712,-4.939 3.976,-5.185 3.054,-5.185C2.292,-5.185 1.636,-4.95 1.087,-4.482C0.538,-4.013 0.176,-3.383 0,-2.592M3.229,4.437C1.647,4.437 0.344,3.895 -0.681,2.811C-1.706,1.727 -2.219,0.359 -2.219,-1.296C-2.219,-2.937 -1.721,-4.302 -0.725,-5.393C0.271,-6.484 1.545,-7.029 3.097,-7.029C4.693,-7.029 5.963,-6.513 6.908,-5.481C7.853,-4.448 8.325,-3.002 8.325,-1.143L8.303,-0.923L-0.154,-0.923C-0.125,0.132 0.227,0.981 0.9,1.625C1.574,2.269 2.379,2.592 3.317,2.592C4.605,2.592 5.616,1.947 6.348,0.658L8.149,1.537C7.666,2.445 6.996,3.155 6.139,3.668C5.283,4.18 4.312,4.437 3.229,4.437" style="fill:rgb(65,0,153);fill-rule:nonzero;"/>
                </g>
                <g transform="matrix(1,0,0,1,389.9546,350.7454)">
                    <path d="M0,3.031C0.996,3.031 1.809,2.673 2.438,1.955C3.097,1.237 3.427,0.301 3.427,-0.857C3.427,-1.985 3.097,-2.914 2.438,-3.647C1.794,-4.379 0.981,-4.745 0,-4.745C-0.966,-4.745 -1.779,-4.379 -2.438,-3.647C-3.097,-2.914 -3.426,-1.985 -3.426,-0.857C-3.426,0.285 -3.097,1.216 -2.438,1.932C-1.779,2.665 -0.966,3.031 0,3.031M-0.066,9.621C-0.666,9.621 -1.229,9.544 -1.757,9.39C-2.284,9.236 -2.764,9.02 -3.196,8.742C-3.627,8.464 -3.997,8.135 -4.305,7.754C-4.613,7.373 -4.847,6.948 -5.008,6.479L-3.097,5.689C-2.877,6.318 -2.497,6.824 -1.955,7.205C-1.413,7.585 -0.783,7.775 -0.066,7.775C1.033,7.775 1.889,7.446 2.504,6.787C3.12,6.128 3.427,5.22 3.427,4.063L3.427,3.031L3.339,3.031C2.958,3.602 2.442,4.052 1.791,4.382C1.139,4.712 0.432,4.877 -0.33,4.877C-1.735,4.877 -2.943,4.327 -3.954,3.228C-4.949,2.101 -5.447,0.739 -5.447,-0.857C-5.447,-2.452 -4.949,-3.808 -3.954,-4.921C-2.943,-6.033 -1.735,-6.59 -0.33,-6.59C0.432,-6.59 1.139,-6.425 1.791,-6.096C2.442,-5.767 2.958,-5.316 3.339,-4.745L3.427,-4.745L3.427,-6.239L5.36,-6.239L5.36,4.063C5.36,5.792 4.869,7.146 3.889,8.127C2.892,9.123 1.574,9.621 -0.066,9.621" style="fill:rgb(65,0,153);fill-rule:nonzero;"/>
                </g>
                <g transform="matrix(1,0,0,1,401.9917,344.1995)">
                    <path d="M0,11.07L-2.021,11.07L-2.021,0.307L-0.088,0.307L-0.088,2.064L0,2.064C0.206,1.494 0.626,1.007 1.263,0.603C1.9,0.201 2.526,0 3.141,0C3.727,0 4.225,0.088 4.635,0.263L4.02,2.218C3.771,2.116 3.375,2.064 2.833,2.064C2.072,2.064 1.409,2.372 0.846,2.987C0.282,3.602 0,4.32 0,5.139L0,11.07Z" style="fill:rgb(65,0,153);fill-rule:nonzero;"/>
                </g>
                <g transform="matrix(1,0,0,1,411.0854,351.1848)">
                    <path d="M0,-2.592L6.172,-2.592C6.114,-3.339 5.81,-3.958 5.261,-4.448C4.712,-4.939 3.976,-5.185 3.054,-5.185C2.292,-5.185 1.636,-4.95 1.087,-4.482C0.539,-4.013 0.176,-3.383 0,-2.592M3.229,4.437C1.648,4.437 0.344,3.895 -0.68,2.811C-1.706,1.727 -2.218,0.359 -2.218,-1.296C-2.218,-2.937 -1.72,-4.302 -0.725,-5.393C0.271,-6.484 1.545,-7.029 3.098,-7.029C4.693,-7.029 5.964,-6.513 6.909,-5.481C7.853,-4.448 8.325,-3.002 8.325,-1.143L8.303,-0.923L-0.153,-0.923C-0.124,0.132 0.227,0.981 0.901,1.625C1.574,2.269 2.38,2.592 3.317,2.592C4.605,2.592 5.616,1.947 6.348,0.658L8.149,1.537C7.667,2.445 6.997,3.155 6.14,3.668C5.283,4.18 4.312,4.437 3.229,4.437" style="fill:rgb(65,0,153);fill-rule:nonzero;"/>
                </g>
                <g transform="matrix(1,0,0,1,425.165,351.1848)">
                    <path d="M0,-2.592L6.173,-2.592C6.114,-3.339 5.811,-3.958 5.261,-4.448C4.712,-4.939 3.976,-5.185 3.054,-5.185C2.292,-5.185 1.637,-4.95 1.088,-4.482C0.538,-4.013 0.176,-3.383 0,-2.592M3.229,4.437C1.647,4.437 0.344,3.895 -0.681,2.811C-1.706,1.727 -2.219,0.359 -2.219,-1.296C-2.219,-2.937 -1.721,-4.302 -0.725,-5.393C0.271,-6.484 1.545,-7.029 3.098,-7.029C4.693,-7.029 5.964,-6.513 6.909,-5.481C7.854,-4.448 8.325,-3.002 8.325,-1.143L8.304,-0.923L-0.153,-0.923C-0.124,0.132 0.227,0.981 0.9,1.625C1.574,2.269 2.38,2.592 3.317,2.592C4.605,2.592 5.616,1.947 6.349,0.658L8.149,1.537C7.666,2.445 6.997,3.155 6.14,3.668C5.283,4.18 4.312,4.437 3.229,4.437" style="fill:rgb(65,0,153);fill-rule:nonzero;"/>
                </g>
                <g transform="matrix(1,0,0,1,437.5322,354.9178)">
                    <path d="M0,-10.411L1.933,-10.411L1.933,-8.918L2.021,-8.918C2.328,-9.444 2.801,-9.884 3.438,-10.235C4.074,-10.587 4.737,-10.763 5.425,-10.763C6.743,-10.763 7.757,-10.385 8.468,-9.632C9.178,-8.877 9.533,-7.805 9.533,-6.413L9.533,0.352L7.512,0.352L7.512,-6.281C7.468,-8.039 6.582,-8.918 4.854,-8.918C4.049,-8.918 3.375,-8.592 2.833,-7.939C2.291,-7.288 2.021,-6.509 2.021,-5.6L2.021,0.352L0,0.352L0,-10.411Z" style="fill:rgb(65,0,153);fill-rule:nonzero;"/>
                </g>
            </g>
        </g>
    </g>
</svg>
